<svg viewBox="0 0 28.2 28.2" xmlns="http://www.w3.org/2000/svg"><path fill="currentColor" d="M19.2 8.4h-1.8c-.3 0-.5.2-.5.5v1.8c0 .3.2.5.5.5h1.8c.3 0 .5-.2.5-.5V8.9c.1-.3-.2-.5-.5-.5zm-.5 5.6c0 2.5-2.1 4.6-4.6 4.6S9.5 16.5 9.5 14c0-.4 0-.7.1-1.1H8.4v6.3c0 .4.3.5.7.5h10.1c.4 0 .7-.2.7-.5v-6.3h-1.2c-.1.4 0 .7 0 1.1z"/><circle fill="currentColor" cx="14.1" cy="14.1" r="2.9"/><path fill="currentColor" d="M14.1 0C6.3 0 0 6.3 0 14.1s6.3 14.1 14.1 14.1 14.1-6.3 14.1-14.1C28.1 6.3 21.8 0 14.1 0zm7.3 19.9c0 .9-.7 1.5-1.5 1.5H8.2c-.9 0-1.5-.7-1.5-1.5V8.2c0-.9.7-1.5 1.5-1.5h11.7c.9 0 1.5.7 1.5 1.5z"/></svg>